<?xml version="1.0" encoding="utf-8"?>
<!-- Generator: Adobe Illustrator 16.0.0, SVG Export Plug-In . SVG Version: 6.00 Build 0)  -->
<!DOCTYPE svg PUBLIC "-//W3C//DTD SVG 1.1//EN" "http://www.w3.org/Graphics/SVG/1.1/DTD/svg11.dtd">
<svg version="1.1" xmlns="http://www.w3.org/2000/svg" xmlns:xlink="http://www.w3.org/1999/xlink" x="0px" y="0px" width="24px"
	 height="24px" viewBox="0 0 24 24" enable-background="new 0 0 24 24" xml:space="preserve">
<path d="M16,18.634l-2.256,1.362l0.594-2.568L12.346,15.7l2.628-0.224L16,13.055l1.025,2.424l2.629,0.224l-1.992,1.729l0.594,2.566
	 M22,14.943l-4.313-0.366L16,10.6l-1.686,3.978L10,14.943l3.27,2.838L12.292,22L16,19.762L19.708,22l-0.983-4.219L22,14.943z"/>
<path d="M12,13.834l-2.256,1.361l0.594-2.567L8.346,10.9l2.628-0.222L12,8.254l1.025,2.424l2.629,0.222l-1.992,1.728l0.594,2.567
	 M18,10.144l-4.313-0.366L12,5.8l-1.686,3.978L6,10.144l3.27,2.836L8.292,17.2L12,14.962l3.708,2.238l-0.983-4.22L18,10.144z"/>
<path d="M8,10.034l-2.256,1.362l0.594-2.568L4.346,7.1l2.628-0.222L8,4.454l1.026,2.424L11.654,7.1L9.662,8.828l0.594,2.568
	 M14,6.344L9.687,5.978L8,2L6.314,5.978L2,6.344l3.27,2.837L4.292,13.4L8,11.162l3.708,2.238l-0.984-4.219L14,6.344z"/>
<path d="M16,19.762L19.708,22l-0.983-4.219L22,14.943l-4.313-0.373L16,10.6l-1.686,3.972L10,14.943l3.27,2.838L12.292,22L16,19.762z
	"/>
<path d="M12,14.962l3.708,2.238l-0.983-4.22L18,10.144l-4.313-0.372L12,5.8l-1.686,3.972L6,10.144l3.27,2.836L8.292,17.2L12,14.962z
	"/>
<path d="M8,11.162l3.708,2.238l-0.984-4.219L14,6.344L9.687,5.972L8,2L6.314,5.972L2,6.344l3.27,2.837L4.292,13.4L8,11.162z"/>
<path d="M16,19.551l-3.384,2.043l0.891-3.852l-2.988-2.592l3.943-0.334L16,11.182l1.539,3.634l3.941,0.334l-2.987,2.594l0.891,3.852
	 M25,14.018l-6.471-0.552L16,7.5l-2.527,5.966L7,14.018l4.904,4.254L10.438,24.6L16,21.242l5.563,3.357l-1.477-6.328L25,14.018z"/>
<path d="M12,14.751l-3.384,2.042l0.89-3.852l-2.988-2.589l3.943-0.334L12,6.382l1.542,3.638l3.94,0.334l-2.988,2.587l0.893,3.854
	 M21,9.219l-6.471-0.551L12,2.7L9.47,8.668L3,9.219l4.905,4.252l-1.467,6.328L12,16.441l5.561,3.355l-1.478-6.328L21,9.219z"/>
<path d="M8,10.951l-3.384,2.043l0.891-3.852L2.52,6.55l3.941-0.333L8,2.581l1.54,3.636l3.94,0.333l-2.987,2.593l0.891,3.852
	 M17,5.416l-6.47-0.549L8-1.1L5.471,4.867L-1,5.416l4.905,4.256L2.438,16L8,12.643L13.563,16l-1.477-6.328L17,5.416z"/>
</svg>
