<svg xmlns="http://www.w3.org/2000/svg" viewBox="0 0 1024 1024">
<path id="icon" d="M511.5,217.78c-169.04,0-211.552,159.504-211.552,294.72c0,135.232,42.496,294.72,211.552,294.72
	c169.024,0,211.536-159.487,211.536-294.72C723.036,377.284,680.524,217.78,511.5,217.78z M511.5,328.916
	c6.864,0,13.12,1.056,19.008,2.512c12.176,10.496,18.128,24.976,6.448,45.168L424.38,583.476
	c-3.456-26.176-3.952-51.84-3.952-70.991C420.428,452.932,424.556,328.916,511.5,328.916z M595.756,424.292
	c5.968,31.744,6.816,64.896,6.816,88.208c0,59.568-4.128,183.6-91.04,183.6c-6.849,0-13.152-0.72-19.009-2.176
	c-1.119-0.336-2.144-0.688-3.231-1.072c-1.792-0.512-3.68-1.088-5.376-1.76c-19.36-8.24-31.552-23.136-13.984-49.488
	L595.756,424.292z M510.428,0.5c-142.031,0-261.744,49.44-359.264,148.8c-49.392,49.392-87.088,105.712-113.312,168.512
	C12.252,380.004-0.5,444.836-0.5,512.5c0,68.288,12.752,133.12,38.352,194.688c25.6,61.601,62.736,116.992,111.504,166.337
	c49.36,48.783,104.784,86.384,166.368,112.592c62.177,25.632,127.024,38.368,194.704,38.368c67.664,0,133.44-13.217,196.849-39.44
	c63.392-26.224,119.936-63.904,169.936-113.296c48.176-46.928,84.624-100.752,108.992-161.696
	C1011.18,648.5,1023.5,582.628,1023.5,512.5c0-69.488-12.32-135.264-37.28-196.848c-24.991-62.16-61.567-117.12-109.712-165.28
	C775.9,50.404,653.66,0.5,510.428,0.5z M512.572,92.644c115.808,0,214.592,41.056,296.863,123.344
	c39.633,39.632,70,84.96,90.721,135.536c20.736,50.592,31.184,104.288,31.184,160.976c0,117.664-40.256,215.264-120.096,293.28
	c-41.472,40.256-88.032,71.151-139.84,92.496c-51.2,21.344-103.969,31.903-158.832,31.903c-55.488,0-108.608-10.447-159.185-31.168
	c-50.607-21.344-96.016-51.808-136.256-91.456c-40.24-40.224-71.28-85.647-93.216-136.256
	c-21.328-51.184-32.272-103.968-32.272-158.832c0-55.472,10.944-108.592,32.272-159.184c21.936-51.2,52.992-97.184,93.216-138.048
	C296.972,133.588,395.532,92.644,512.572,92.644z"/>
</svg>